<svg width="55" height="54" viewBox="0 0 55 54" fill="none" xmlns="http://www.w3.org/2000/svg">
<path d="M47.2084 6.75H7.79175C6.33306 6.75 4.93411 7.31893 3.90266 8.33162C2.87121 9.34432 2.29175 10.7178 2.29175 12.15V41.85C2.29175 43.2822 2.87121 44.6557 3.90266 45.6684C4.93411 46.6811 6.33306 47.25 7.79175 47.25H47.2084C48.6671 47.25 50.0661 46.6811 51.0975 45.6684C52.129 44.6557 52.7084 43.2822 52.7084 41.85V12.15C52.7084 10.7178 52.129 9.34432 51.0975 8.33162C50.0661 7.31893 48.6671 6.75 47.2084 6.75Z" stroke="black" stroke-width="3" stroke-miterlimit="10"/>
<path d="M47.2084 6.75H7.79175C6.33306 6.75 4.93411 7.31893 3.90266 8.33162C2.87121 9.34432 2.29175 10.7178 2.29175 12.15V20.25H52.7084V12.15C52.7084 11.4409 52.5662 10.7387 52.2898 10.0835C52.0134 9.42835 51.6082 8.83306 51.0975 8.33162C50.5868 7.83019 49.9805 7.43243 49.3132 7.16105C48.6459 6.88968 47.9307 6.75 47.2084 6.75Z" fill="#C2CCD1" stroke="black" stroke-width="3" stroke-miterlimit="10"/>
<path d="M34.3751 20.25L38.9584 6.75L34.3751 20.25ZM16.0417 20.25L20.6251 6.75L16.0417 20.25ZM2.29175 20.25H52.7084H2.29175Z" fill="#43DD5C"/>
<path d="M34.3751 20.25L38.9584 6.75M16.0417 20.25L20.6251 6.75M2.29175 20.25H52.7084" stroke="black" stroke-width="3" stroke-miterlimit="10" stroke-linecap="round"/>
<path d="M15.712 38.182C14.8207 38.182 14.0553 38.0117 13.416 37.671C12.7767 37.3303 12.2867 36.8637 11.946 36.271C11.6053 35.6783 11.435 35.004 11.435 34.248C11.435 33.4873 11.6053 32.82 11.946 32.246C12.2867 31.672 12.7767 31.224 13.416 30.902C14.0553 30.5753 14.8207 30.412 15.712 30.412C16.37 30.412 16.9487 30.5053 17.448 30.692C17.9473 30.8787 18.3627 31.126 18.694 31.434C19.03 31.7373 19.282 32.071 19.45 32.435C19.6227 32.799 19.709 33.1607 19.709 33.52C19.709 33.5293 19.709 33.541 19.709 33.555C19.709 33.5643 19.709 33.5737 19.709 33.583H16.916C16.916 33.555 16.9137 33.5293 16.909 33.506C16.909 33.4827 16.9043 33.4593 16.895 33.436C16.8577 33.3147 16.7993 33.1887 16.72 33.058C16.6407 32.9273 16.5193 32.8177 16.356 32.729C16.1973 32.6357 15.9733 32.589 15.684 32.589C15.3993 32.589 15.152 32.6543 14.942 32.785C14.7367 32.9157 14.578 33.1047 14.466 33.352C14.354 33.5993 14.298 33.898 14.298 34.248C14.298 34.5887 14.354 34.892 14.466 35.158C14.578 35.424 14.7367 35.6317 14.942 35.781C15.152 35.9303 15.3993 36.005 15.684 36.005C15.964 36.005 16.188 35.963 16.356 35.879C16.5287 35.795 16.657 35.6807 16.741 35.536C16.8297 35.3867 16.8857 35.2187 16.909 35.032H19.709C19.709 35.3867 19.6227 35.7507 19.45 36.124C19.282 36.4927 19.03 36.8333 18.694 37.146C18.3627 37.454 17.9473 37.7037 17.448 37.895C16.9487 38.0863 16.37 38.182 15.712 38.182ZM24.0244 27.059V38H21.2454V27.059H24.0244ZM27.0147 35.053V33.373H31.3967L31.1867 33.737C31.1867 33.6997 31.1867 33.66 31.1867 33.618C31.1867 33.5713 31.1867 33.5317 31.1867 33.499C31.1867 33.3403 31.14 33.177 31.0467 33.009C30.958 32.8363 30.811 32.6917 30.6057 32.575C30.405 32.4583 30.1344 32.4 29.7937 32.4C29.4624 32.4 29.1847 32.47 28.9607 32.61C28.7367 32.75 28.5687 32.9577 28.4567 33.233C28.3447 33.5037 28.2887 33.835 28.2887 34.227C28.2887 34.6377 28.3424 34.9877 28.4497 35.277C28.557 35.5663 28.7274 35.788 28.9607 35.942C29.194 36.0913 29.4997 36.166 29.8777 36.166C30.1017 36.166 30.293 36.1497 30.4517 36.117C30.6104 36.0843 30.7364 36.0423 30.8297 35.991C30.9277 35.9397 31 35.8837 31.0467 35.823C31.098 35.7623 31.1284 35.704 31.1377 35.648H33.9237C33.891 35.9747 33.772 36.2897 33.5667 36.593C33.366 36.8963 33.0884 37.1693 32.7337 37.412C32.379 37.65 31.952 37.839 31.4527 37.979C30.9534 38.1143 30.3887 38.182 29.7587 38.182C28.886 38.182 28.13 38.0187 27.4907 37.692C26.8514 37.3607 26.359 36.9033 26.0137 36.32C25.6684 35.732 25.4957 35.0577 25.4957 34.297C25.4957 33.5177 25.673 32.8363 26.0277 32.253C26.3824 31.6697 26.8794 31.217 27.5187 30.895C28.1627 30.573 28.9094 30.412 29.7587 30.412C30.636 30.412 31.392 30.5777 32.0267 30.909C32.666 31.2357 33.1584 31.7023 33.5037 32.309C33.849 32.911 34.0217 33.6273 34.0217 34.458C34.0217 34.598 34.0194 34.717 34.0147 34.815C34.01 34.913 34.003 34.9923 33.9937 35.053H27.0147ZM39.3179 38.175C38.4779 38.175 37.7382 38.0117 37.0989 37.685C36.4642 37.3583 35.9672 36.9033 35.6079 36.32C35.2532 35.7367 35.0759 35.06 35.0759 34.29C35.0759 33.52 35.2532 32.8433 35.6079 32.26C35.9672 31.6767 36.4642 31.224 37.0989 30.902C37.7382 30.5753 38.4779 30.412 39.3179 30.412C40.1579 30.412 40.8952 30.5753 41.5299 30.902C42.1692 31.224 42.6662 31.6767 43.0209 32.26C43.3802 32.8433 43.5599 33.52 43.5599 34.29C43.5599 35.06 43.3802 35.7367 43.0209 36.32C42.6662 36.9033 42.1692 37.3583 41.5299 37.685C40.8952 38.0117 40.1579 38.175 39.3179 38.175ZM39.3179 36.04C39.6072 36.04 39.8545 35.9677 40.0599 35.823C40.2652 35.6783 40.4215 35.4753 40.5289 35.214C40.6409 34.9527 40.6969 34.6447 40.6969 34.29C40.6969 33.9353 40.6409 33.6297 40.5289 33.373C40.4215 33.1117 40.2652 32.911 40.0599 32.771C39.8545 32.6263 39.6072 32.554 39.3179 32.554C39.0332 32.554 38.7859 32.6263 38.5759 32.771C38.3705 32.911 38.2119 33.1117 38.0999 33.373C37.9925 33.6297 37.9389 33.9353 37.9389 34.29C37.9389 34.6447 37.9925 34.9527 38.0999 35.214C38.2119 35.4753 38.3705 35.6783 38.5759 35.823C38.7859 35.9677 39.0332 36.04 39.3179 36.04Z" fill="black"/>
</svg>
